<?xml version="1.0" standalone="no"?>
<!DOCTYPE svg PUBLIC "-//W3C//DTD SVG 20010904//EN"
 "http://www.w3.org/TR/2001/REC-SVG-20010904/DTD/svg10.dtd">
<svg version="1.0" xmlns="http://www.w3.org/2000/svg"
 width="1080.000000pt" height="414.000000pt" viewBox="0 0 1080.000000 414.000000"
 preserveAspectRatio="xMidYMid meet">

<g transform="translate(0.000000,414.000000) scale(0.100000,-0.100000)"
fill="#000000" stroke="none">
<path d="M363 4046 c-102 -32 -182 -113 -213 -215 -20 -65 -20 -92 -18 -1751
l3 -1685 26 -55 c37 -80 81 -125 157 -162 l67 -33 1399 -3 c1568 -3 1469 -7
1544 68 76 76 72 13 72 1142 l0 1008 234 0 c221 0 235 1 260 21 14 11 26 31
26 43 0 13 -25 61 -55 107 -30 46 -55 89 -55 94 0 6 25 48 55 94 30 46 55 92
55 101 0 10 -9 28 -19 41 -19 24 -21 24 -260 27 l-241 3 0 65 0 64 179 0 c175
0 180 1 195 22 24 34 20 49 -39 139 -30 46 -55 90 -55 97 0 7 25 49 55 95 30
45 55 91 55 103 0 11 -10 30 -23 42 -22 21 -32 22 -194 22 l-171 0 -4 178 c-3
160 -5 181 -25 219 -27 51 -81 96 -132 112 -59 17 -2821 14 -2878 -3z m2874
-149 l28 -27 3 -310 c2 -171 0 -310 -5 -310 -4 0 -42 34 -84 76 l-76 76 18 49
c23 60 24 102 3 167 -45 140 -194 214 -335 168 l-52 -18 -81 82 -81 81 317 -3
318 -3 27 -28z m-313 -241 c47 -20 76 -65 76 -119 0 -117 -148 -167 -224 -76
-49 58 -26 157 45 192 42 20 60 21 103 3z m-883 -256 c132 -25 258 -117 319
-233 18 -34 40 -66 49 -72 9 -5 47 -15 84 -21 145 -26 270 -120 335 -253 36
-75 37 -78 37 -196 0 -114 -2 -123 -32 -188 -39 -82 -123 -173 -196 -212 -94
-50 -87 -29 -87 -287 l0 -228 -100 0 -100 0 0 114 c0 107 -1 116 -22 130 -31
22 -64 20 -88 -4 -18 -18 -20 -33 -20 -130 l0 -110 -95 0 -95 0 0 104 c0 89
-3 107 -21 130 -24 30 -63 34 -91 9 -15 -14 -18 -32 -18 -130 l0 -113 -100 0
-100 0 0 110 c0 97 -2 112 -20 130 -11 11 -31 20 -45 20 -14 0 -34 -9 -45 -20
-18 -18 -20 -33 -20 -130 l0 -110 -100 0 -100 0 0 218 c0 239 0 239 -60 257
-215 64 -358 291 -322 509 37 220 229 386 448 386 29 0 59 3 68 6 9 3 31 33
48 67 67 125 174 210 304 241 73 18 116 19 185 6z m1532 -17 c-4 -10 -17 -31
-30 -46 -31 -38 -29 -73 7 -127 16 -25 30 -48 30 -52 0 -5 -40 -8 -90 -8 l-90
0 0 125 0 125 90 0 c81 0 89 -2 83 -17z m141 -645 c-4 -7 -18 -27 -30 -45 -24
-32 -34 -106 -15 -117 5 -3 18 -22 30 -41 l20 -35 -159 0 -160 0 0 125 0 125
161 0 c125 0 159 -3 153 -12z m-1164 -1223 l0 -65 -590 0 -590 0 0 65 0 65
590 0 590 0 0 -65z m458 -917 l-3 -63 -800 -2 -800 -3 -17 -21 c-25 -29 -22
-55 7 -84 l24 -25 796 0 796 0 -3 -62 -3 -63 -1279 -3 c-866 -1 -1291 1 -1317
8 -137 37 -191 209 -99 314 63 71 -47 66 1398 66 l1303 0 -3 -62z"/>
<path d="M1805 2339 c-11 -7 -42 -32 -68 -56 -26 -25 -73 -56 -105 -69 -31
-14 -72 -32 -89 -39 -40 -18 -52 -55 -29 -90 9 -14 27 -27 39 -30 47 -12 227
75 282 135 16 18 31 20 121 20 l103 0 63 -48 c67 -51 127 -82 195 -102 36 -11
46 -11 67 4 58 37 39 103 -35 125 -69 21 -112 46 -174 103 l-58 53 -146 3
c-97 1 -153 -2 -166 -9z"/>
<path d="M406 508 c-22 -32 -20 -55 9 -83 24 -25 24 -25 240 -25 l216 0 25 26
c20 19 24 31 19 52 -13 52 -11 52 -261 52 -229 0 -233 0 -248 -22z"/>
<path d="M1066 514 c-23 -22 -20 -70 5 -95 18 -18 30 -21 81 -17 44 3 64 10
74 23 20 26 17 69 -4 88 -25 23 -134 24 -156 1z"/>
<path d="M10193 2730 c-18 -10 -42 -38 -53 -61 -71 -139 -106 -741 -52 -899
15 -45 28 -62 68 -90 46 -33 53 -35 129 -35 72 0 88 4 158 37 104 50 195 139
225 220 39 103 53 245 32 320 -19 66 -70 130 -130 161 -77 40 -145 35 -227
-15 l-58 -36 -6 126 c-4 70 -7 157 -8 194 -1 46 -6 71 -17 82 -20 20 -22 20
-61 -4z m244 -486 c29 -18 38 -52 38 -139 -1 -139 -9 -161 -85 -237 -51 -51
-75 -68 -95 -68 l-27 0 4 209 c4 227 5 234 62 250 36 10 71 5 103 -15z"/>
<path d="M6413 2720 c-30 -12 -43 -41 -43 -94 0 -57 25 -86 75 -86 47 0 94 42
102 92 5 32 1 41 -25 68 -31 31 -66 37 -109 20z"/>
<path d="M4320 2659 c-119 -42 -130 -44 -130 -26 0 13 -11 15 -57 12 -108 -6
-99 17 -109 -258 -5 -133 -9 -340 -9 -459 0 -204 1 -218 21 -245 33 -44 77
-43 119 1 38 40 41 54 50 231 3 61 9 127 12 149 l6 38 138 -4 c76 -2 141 -6
144 -10 4 -3 13 -80 20 -170 14 -173 39 -269 75 -288 20 -11 73 -13 105 -4 11
3 31 21 44 39 23 34 23 36 12 159 -6 68 -16 147 -22 175 -15 69 -57 124 -113
147 -25 11 -45 22 -43 25 1 4 31 28 67 55 88 67 120 128 120 231 0 89 -21 137
-77 176 -66 46 -106 57 -200 57 -72 0 -103 -6 -173 -31z m201 -98 c20 -16 24
-28 23 -73 -1 -115 -103 -227 -253 -278 -33 -11 -63 -20 -67 -20 -8 0 -1 346
7 355 12 11 143 33 205 34 47 1 67 -4 85 -18z"/>
<path d="M8377 2673 c-4 -3 -24 -9 -44 -12 l-38 -6 0 -460 c1 -490 1 -489 50
-521 34 -22 90 -3 110 37 15 28 27 134 41 340 l6 97 103 -5 c87 -5 113 -2 175
16 40 12 73 21 75 19 2 -2 8 -83 14 -180 11 -172 19 -212 57 -290 16 -35 21
-38 60 -38 26 0 51 7 65 19 l24 19 3 486 3 486 -80 0 c-134 0 -127 10 -135
-187 -8 -195 -6 -191 -111 -222 -63 -20 -218 -51 -251 -51 -11 0 -14 43 -16
218 l-3 217 -30 3 c-16 2 -34 8 -39 13 -12 11 -30 12 -39 2z"/>
<path d="M7075 2418 c-41 -15 -82 -43 -132 -92 l-43 -40 0 27 c0 58 -75 85
-143 51 -41 -21 -37 -16 -52 -60 -11 -32 -10 -40 1 -52 17 -17 17 -57 3 -402
-8 -209 -8 -298 3 -420 l13 -155 30 -3 c41 -5 104 18 117 42 6 11 15 94 20
185 6 91 12 172 14 178 2 10 16 8 54 -7 55 -22 134 -26 192 -10 87 25 192 128
223 220 39 116 37 292 -4 384 -49 112 -200 190 -296 154z m3 -162 c34 -18 65
-51 87 -95 14 -27 16 -53 13 -126 -6 -151 -61 -227 -164 -229 -35 -1 -49 4
-71 27 l-28 27 -3 164 -3 164 39 41 c43 45 80 53 130 27z"/>
<path d="M5154 2402 c-61 -22 -142 -79 -178 -127 -67 -87 -96 -218 -76 -338
16 -95 42 -146 100 -201 120 -113 312 -96 439 39 27 28 58 70 70 93 21 40 21
42 2 42 -10 0 -24 -6 -30 -14 -38 -45 -247 -111 -303 -95 -67 18 -118 99 -118
187 l0 49 73 6 c136 11 304 87 335 151 16 31 3 101 -24 144 -40 62 -199 97
-290 64z m140 -125 c50 -37 -30 -97 -176 -131 -41 -9 -37 20 9 73 54 64 125
88 167 58z"/>
<path d="M5905 2407 c-139 -46 -238 -163 -266 -312 -35 -187 35 -342 189 -416
98 -47 263 -17 357 64 30 26 37 40 38 75 l3 42 -37 0 c-20 0 -62 -12 -94 -26
-155 -71 -265 0 -265 172 0 124 45 220 116 250 49 21 78 17 155 -16 l70 -31
28 20 c28 20 41 55 41 111 0 25 -5 28 -82 50 -102 28 -199 34 -253 17z"/>
<path d="M7764 2402 c-61 -22 -142 -79 -178 -127 -67 -87 -96 -218 -76 -338
16 -95 42 -146 100 -201 120 -113 312 -96 439 39 27 28 58 70 70 93 21 40 21
42 2 42 -10 0 -24 -6 -30 -14 -38 -45 -247 -111 -303 -95 -67 18 -118 99 -118
187 l0 49 73 6 c136 11 304 87 335 151 16 31 3 101 -24 144 -40 62 -199 97
-290 64z m140 -125 c50 -37 -30 -97 -176 -131 -41 -9 -37 20 9 73 54 64 125
88 167 58z"/>
<path d="M9765 2411 c-12 -5 -26 -16 -33 -24 -7 -8 -24 -98 -37 -199 -29 -217
-36 -244 -78 -300 -37 -48 -113 -106 -124 -94 -5 4 -9 137 -11 294 -4 328 -2
322 -82 322 -43 0 -51 -4 -89 -45 -22 -24 -41 -47 -41 -50 0 -3 7 -22 15 -42
12 -27 15 -80 15 -232 0 -234 9 -279 73 -348 l41 -45 60 4 60 5 67 73 67 74
17 -39 c31 -77 112 -141 161 -129 50 13 85 111 48 132 -15 8 -16 38 -11 288 3
153 8 290 11 304 4 14 2 31 -3 39 -11 16 -97 25 -126 12z"/>
<path d="M6409 2403 l-26 -4 -6 -172 c-10 -258 -8 -516 3 -538 12 -21 60 -49
84 -49 9 0 27 22 41 50 l25 49 0 324 c0 238 -3 326 -12 335 -12 12 -54 13
-109 5z"/>
</g>
</svg>
